<svg width="504" height="551" viewBox="0 0 504 551" fill="none" xmlns="http://www.w3.org/2000/svg">
<path d="M54.7872 221.371H48.5658C41.8897 221.371 35.4869 224.331 30.7662 229.6C26.0454 234.869 23.3933 242.015 23.3933 249.467V403.643C23.3933 411.094 26.0454 418.24 30.7662 423.509C35.4869 428.779 41.8897 431.739 48.5658 431.739H133.921C140.597 431.739 146.999 428.779 151.72 423.509C156.441 418.24 159.093 411.094 159.093 403.643" stroke="#263238" stroke-width="1.10311" stroke-linecap="round" stroke-linejoin="round" stroke-dasharray="4.41 4.41"/>
<path d="M152.137 75.8944V45.441C152.137 40.8844 153.756 36.5137 156.64 33.2881C159.524 30.0624 163.436 28.2451 167.518 28.235H278.516C282.605 28.235 286.526 30.0477 289.417 33.2745C292.308 36.5013 293.932 40.8777 293.932 45.441" stroke="#263238" stroke-width="1.10311" stroke-linecap="round" stroke-linejoin="round" stroke-dasharray="4.41 4.41"/>
<path d="M252.001 550.605C373.413 550.605 471.838 535.256 471.838 516.321C471.838 497.387 373.413 482.037 252.001 482.037C130.588 482.037 32.1628 497.387 32.1628 516.321C32.1628 535.256 130.588 550.605 252.001 550.605Z" fill="#22459F"/>
<path opacity="0.5" d="M252.001 550.605C373.413 550.605 471.838 535.256 471.838 516.321C471.838 497.387 373.413 482.037 252.001 482.037C130.588 482.037 32.1628 497.387 32.1628 516.321C32.1628 535.256 130.588 550.605 252.001 550.605Z" fill="white"/>
<path d="M459.235 116.751V347.438C459.235 354.979 456.552 362.211 451.775 367.545C446.999 372.878 440.52 375.876 433.764 375.88H70.2373C63.4809 375.876 57.0023 372.878 52.2259 367.545C47.4495 362.211 44.7664 354.979 44.7664 347.438V116.751C44.7664 116.072 44.7664 115.47 44.8467 114.752C45.2942 107.576 48.1635 100.856 52.8757 95.9489C57.5879 91.0413 63.7923 88.3111 70.2373 88.309H433.764C440.216 88.312 446.427 91.0493 451.14 95.9676C455.854 100.886 458.718 107.618 459.154 114.804C459.212 115.418 459.235 116.085 459.235 116.751Z" fill="white" stroke="#263238" stroke-width="1.10311" stroke-linecap="round" stroke-linejoin="round"/>
<path d="M57.1632 125.412H448.135V338.508C448.135 345.576 445.619 352.354 441.142 357.351C436.664 362.349 430.592 365.156 424.259 365.156H81.0501C74.718 365.156 68.6452 362.349 64.1676 357.351C59.6901 352.354 57.1747 345.576 57.1747 338.508V125.412H57.1632Z" fill="#263238"/>
<path opacity="0.2" d="M448.146 125.412V338.508C448.18 345.536 445.711 352.291 441.284 357.289C436.856 362.286 430.832 365.116 424.535 365.156H80.7746C74.4779 365.116 68.4534 362.286 64.0257 357.289C59.598 352.291 57.1296 345.536 57.1632 338.508V125.412H448.146Z" fill="white"/>
<path d="M459.154 114.803H44.8467C45.2942 107.627 48.1634 100.907 52.8756 95.9999C57.5879 91.0923 63.7923 88.3621 70.2373 88.36H433.764C440.209 88.3621 446.413 91.0923 451.125 95.9999C455.838 100.907 458.707 107.627 459.154 114.803Z" fill="#22459F" stroke="#263238" stroke-width="1.10311" stroke-miterlimit="10"/>
<path d="M95.7542 101.531C95.7542 102.526 95.4896 103.5 94.994 104.328C94.4983 105.156 93.7937 105.801 92.9695 106.182C92.1452 106.563 91.2381 106.663 90.3631 106.469C89.488 106.275 88.6842 105.795 88.0533 105.091C87.4224 104.387 86.9928 103.49 86.8187 102.513C86.6447 101.536 86.734 100.524 87.0754 99.6039C87.4169 98.6838 87.9951 97.8975 88.7369 97.3442C89.4788 96.791 90.3509 96.4957 91.2431 96.4957C92.4395 96.4957 93.587 97.0261 94.433 97.9704C95.2789 98.9146 95.7542 100.195 95.7542 101.531Z" fill="#263238"/>
<path d="M114.832 101.531C114.832 102.526 114.567 103.5 114.071 104.328C113.576 105.156 112.871 105.801 112.047 106.182C111.223 106.563 110.316 106.663 109.44 106.469C108.565 106.275 107.762 105.795 107.131 105.091C106.5 104.387 106.07 103.49 105.896 102.513C105.722 101.536 105.811 100.524 106.153 99.6039C106.494 98.6838 107.072 97.8975 107.814 97.3442C108.556 96.791 109.428 96.4957 110.321 96.4957C111.517 96.4957 112.664 97.0261 113.51 97.9704C114.356 98.9146 114.832 100.195 114.832 101.531Z" fill="#263238"/>
<path d="M129.398 106.566C131.889 106.566 133.909 104.311 133.909 101.531C133.909 98.7499 131.889 96.4957 129.398 96.4957C126.907 96.4957 124.887 98.7499 124.887 101.531C124.887 104.311 126.907 106.566 129.398 106.566Z" fill="#263238"/>
<path d="M448.135 125.412V338.508C448.135 345.576 445.62 352.354 441.142 357.351C436.664 362.349 430.592 365.156 424.26 365.156H81.0501C75.5236 365.155 70.1686 363.014 65.8984 359.099C61.6282 355.183 58.7073 349.735 57.6338 343.684V343.607C57.342 341.918 57.196 340.202 57.1976 338.482V125.412H448.135Z" stroke="#263238" stroke-width="1.10311" stroke-miterlimit="10"/>
<path d="M447.768 158.363C446.094 157.314 444.313 156.493 442.464 155.916L440.318 145.218H431.204L429.08 155.916C427.221 156.482 425.432 157.304 423.754 158.363L415.524 152.483L409.085 159.644L414.262 168.83C413.314 170.703 412.578 172.7 412.069 174.775L402.485 177.145V187.318L412.069 189.713C412.572 191.799 413.308 193.805 414.262 195.684L408.993 204.934L415.444 212.121L423.72 206.24C425.394 207.301 427.179 208.127 429.035 208.7L431.17 219.385H440.249L442.384 208.7C444.234 208.122 446.015 207.296 447.687 206.24L448.112 206.548V158.107L447.768 158.363ZM435.784 195.517C433.454 195.517 431.177 194.746 429.24 193.301C427.303 191.856 425.793 189.802 424.902 187.4C424.011 184.997 423.779 182.353 424.234 179.803C424.689 177.253 425.812 174.911 427.46 173.073C429.109 171.235 431.208 169.984 433.493 169.478C435.779 168.973 438.147 169.235 440.299 170.232C442.451 171.229 444.289 172.915 445.582 175.079C446.874 177.242 447.563 179.785 447.561 182.385C447.561 184.111 447.256 185.819 446.664 187.413C446.072 189.007 445.205 190.456 444.111 191.675C443.017 192.895 441.719 193.862 440.29 194.521C438.861 195.18 437.33 195.519 435.784 195.517Z" fill="#263238"/>
<path d="M283.509 168.677V147.23L263.307 142.22C262.217 137.863 260.676 133.663 258.716 129.703L261.16 125.412H165.773L168.127 129.588C166.142 133.53 164.6 137.73 163.535 142.092L143.321 147.115V168.612L163.535 173.647C164.6 178.043 166.142 182.276 168.127 186.254L157.027 205.741L170.629 220.91L188.076 208.508C191.616 210.73 195.381 212.472 199.291 213.697L203.791 236.181H222.96L227.482 213.646C231.38 212.415 235.133 210.673 238.662 208.457L256.121 220.858L269.712 205.689L258.681 186.203C260.636 182.25 262.177 178.058 263.272 173.712L283.509 168.677ZM213.49 185.665C208.579 185.665 203.779 184.04 199.696 180.995C195.613 177.95 192.431 173.622 190.552 168.558C188.673 163.494 188.181 157.922 189.139 152.547C190.097 147.171 192.461 142.234 195.934 138.358C199.406 134.483 203.83 131.843 208.646 130.774C213.462 129.705 218.454 130.254 222.991 132.351C227.528 134.448 231.406 138 234.134 142.557C236.862 147.115 238.318 152.472 238.318 157.953C238.32 161.593 237.678 165.197 236.431 168.56C235.184 171.923 233.355 174.978 231.049 177.552C228.744 180.126 226.006 182.167 222.993 183.559C219.98 184.951 216.751 185.667 213.49 185.665Z" fill="#263238"/>
<path d="M156.017 315.947L156.832 298.92L141.026 293.949C140.292 290.45 139.206 287.055 137.789 283.828L147.339 268.864L137.1 256.193L122.798 265.161C120.064 263.242 117.14 261.681 114.085 260.511L111.354 242.421L96.11 241.639L91.7022 259.332C88.5617 260.118 85.5172 261.322 82.6342 262.919L69.2387 252.273L57.8634 263.688L65.9673 279.664C64.2299 282.702 62.8271 285.963 61.7891 289.375L57.1976 290.221V313.282L60.5494 314.332C61.2447 317.843 62.3202 321.246 63.7519 324.466L57.1632 334.78L57.5994 343.607V343.684L64.4062 352.101L78.7314 343.069C81.4605 345.028 84.394 346.607 87.4666 347.771L90.1526 365.144L90.2789 365.874L105.522 366.771L105.924 365.144L109.93 349.091C113.085 348.302 116.144 347.098 119.044 345.503L132.417 356.137L143.781 344.735L135.746 328.746C137.467 325.711 138.85 322.455 139.866 319.047L156.017 315.947ZM115.532 289.363C112.921 286.121 109.507 283.816 105.722 282.741C101.937 281.665 97.9515 281.866 94.2693 283.319C90.587 284.772 87.3736 287.411 85.0355 290.903C82.6974 294.395 81.3396 298.582 81.134 302.935C80.9284 307.288 81.8842 311.612 83.8804 315.358C85.8766 319.105 88.8236 322.107 92.3486 323.984C95.8735 325.861 99.8181 326.529 103.683 325.903C107.548 325.278 111.16 323.387 114.062 320.469C117.937 316.562 120.267 311.1 120.543 305.28C120.818 299.46 119.016 293.755 115.532 289.414V289.363Z" fill="#263238"/>
<path d="M277.942 290.567C278.532 287.93 278.844 285.226 278.872 282.508L289.834 276.102L286.804 263.688L274.43 264.329C273.177 262.008 271.686 259.859 269.988 257.923L273.649 244.714L263.663 238.308L255.306 248.48C252.948 247.845 250.535 247.501 248.109 247.456L242.37 235.22L231.259 238.59L231.844 252.414C229.765 253.812 227.839 255.476 226.105 257.372L214.259 253.285L208.52 264.418L217.703 273.732C217.109 276.359 216.804 279.056 216.796 281.765L205.811 288.171L208.841 300.573L221.238 299.919C222.467 302.251 223.951 304.403 225.657 306.325L221.973 319.47L231.97 325.876L240.281 315.78C242.642 316.444 245.066 316.783 247.501 316.792L253.24 329.04L264.352 325.671L263.858 313.858L263.778 311.834C265.886 310.449 267.836 308.784 269.586 306.876L281.42 310.976L286.31 301.444L287.136 299.83L277.942 290.567ZM251.691 298.1C248.841 298.977 245.823 298.89 243.018 297.85C240.213 296.809 237.748 294.863 235.935 292.256C234.123 289.65 233.045 286.502 232.838 283.211C232.631 279.92 233.304 276.635 234.772 273.771C236.241 270.908 238.438 268.596 241.085 267.128C243.732 265.66 246.71 265.103 249.641 265.527C252.573 265.951 255.325 267.337 257.55 269.51C259.774 271.682 261.37 274.543 262.136 277.73C263.157 281.976 262.631 286.501 260.674 290.317C258.718 294.134 255.488 296.931 251.691 298.1Z" fill="#263238"/>
<path d="M405.033 312.398L407.558 295.358L392.108 288.427C391.757 284.796 391.013 281.225 389.893 277.794L401.015 263.97L392.016 249.877L376.681 257.141C374.135 254.863 371.352 252.936 368.393 251.402L367.498 232.837L352.231 230.019L345.976 247.187C342.736 247.611 339.551 248.45 336.483 249.685L324.063 237.27L311.494 247.315L318.014 264.418C316.219 266.918 314.661 269.619 313.365 272.477C313.193 272.874 313.009 273.271 312.848 273.668L296.227 274.693L293.691 291.707L296.193 292.835L309.141 298.664C309.494 302.278 310.238 305.831 311.356 309.246L300.21 323.16L309.221 337.253L324.545 329.95C327.083 332.248 329.862 334.193 332.821 335.741L333.682 354.215L348.937 357.034L355.181 339.994C358.428 339.598 361.619 338.764 364.686 337.509L377.082 349.923L389.709 339.866L383.189 322.75C385.266 319.905 387.02 316.786 388.412 313.461L405.033 312.398ZM362.218 311.629C359.006 314.201 355.183 315.652 351.233 315.799C347.282 315.946 343.381 314.782 340.023 312.454C336.666 310.126 334.002 306.739 332.369 302.721C330.736 298.703 330.207 294.235 330.849 289.882C331.492 285.529 333.276 281.486 335.977 278.265C338.678 275.043 342.174 272.789 346.024 271.785C349.873 270.782 353.902 271.076 357.602 272.629C361.302 274.181 364.506 276.924 366.809 280.51C369.894 285.319 371.141 291.3 370.276 297.136C369.411 302.972 366.504 308.185 362.195 311.629H362.218Z" fill="#263238"/>
<path d="M198.143 186.254H78.1002C69.7892 186.254 63.0518 193.774 63.0518 203.05V388.55C63.0518 397.827 69.7892 405.347 78.1002 405.347H198.143C206.454 405.347 213.191 397.827 213.191 388.55V203.05C213.191 193.774 206.454 186.254 198.143 186.254Z" fill="#22459F" stroke="#263238" stroke-width="1.10311" stroke-miterlimit="10"/>
<path opacity="0.2" d="M198.143 186.254H78.1002C69.7892 186.254 63.0518 193.774 63.0518 203.05V388.55C63.0518 397.827 69.7892 405.347 78.1002 405.347H198.143C206.454 405.347 213.191 397.827 213.191 388.55V203.05C213.191 193.774 206.454 186.254 198.143 186.254Z" fill="black"/>
<path d="M227.161 219.603V405.103C227.163 407.31 226.774 409.495 226.019 411.535C225.263 413.574 224.155 415.427 222.757 416.988C221.36 418.549 219.701 419.787 217.874 420.632C216.048 421.477 214.09 421.912 212.113 421.912H92.0696C90.0935 421.91 88.1369 421.474 86.3117 420.629C84.4866 419.783 82.8285 418.544 81.4322 416.984C80.0359 415.423 78.9287 413.57 78.1738 411.532C77.419 409.493 77.0312 407.309 77.0327 405.103V219.603C77.0327 215.151 78.6166 210.88 81.4362 207.731C84.2559 204.581 88.0806 202.81 92.0696 202.807H212.113C216.104 202.807 219.931 204.576 222.753 207.726C225.576 210.876 227.161 215.148 227.161 219.603Z" fill="white" stroke="#263238" stroke-width="1.10311" stroke-linecap="round" stroke-linejoin="round"/>
<path d="M227.161 219.603V229.532H77.0327V219.603C77.0327 215.151 78.6166 210.88 81.4362 207.731C84.2559 204.581 88.0805 202.81 92.0696 202.807H212.113C216.104 202.807 219.931 204.576 222.753 207.726C225.576 210.876 227.161 215.148 227.161 219.603Z" fill="#22459F" stroke="#263238" stroke-width="1.10311" stroke-miterlimit="10"/>
<path d="M128.089 241.037H91.1514V247.955H128.089V241.037Z" fill="#22459F"/>
<path d="M128.089 303.033H91.1514V309.951H128.089V303.033Z" fill="#22459F"/>
<path d="M128.089 359.25H91.1514V366.168H128.089V359.25Z" fill="#22459F"/>
<path d="M196.054 258.166H91.1514V263.239H196.054V258.166Z" fill="#263238"/>
<path d="M177.137 267.864H91.1514V272.81H177.137V267.864Z" fill="#263238"/>
<path d="M188.398 277.409H91.1514V282.354H188.398V277.409Z" fill="#263238"/>
<path d="M188.398 286.941H91.1514V291.886H188.398V286.941Z" fill="#263238"/>
<path d="M196.054 314.384H91.1514V319.457H196.054V314.384Z" fill="#263238"/>
<path d="M177.137 324.082H91.1514V329.027H177.137V324.082Z" fill="#263238"/>
<path d="M188.398 333.627H91.1514V338.572H188.398V333.627Z" fill="#263238"/>
<path d="M196.054 376.11H91.1514V381.184H196.054V376.11Z" fill="#263238"/>
<path d="M177.137 385.822H91.1514V390.767H177.137V385.822Z" fill="#263238"/>
<path d="M188.398 395.366H91.1514V400.312H188.398V395.366Z" fill="#263238"/>
<path d="M396.367 74.1776V149.151C396.367 151.782 395.902 154.387 395 156.818C394.098 159.248 392.775 161.456 391.108 163.316C389.441 165.175 387.461 166.65 385.283 167.656C383.105 168.661 380.771 169.178 378.414 169.176H223.706C221.349 169.178 219.015 168.661 216.837 167.656C214.659 166.65 212.679 165.175 211.012 163.316C209.345 161.456 208.023 159.248 207.12 156.818C206.218 154.387 205.753 151.782 205.753 149.151V74.1776C205.756 68.8644 207.649 63.7697 211.015 60.0127C214.381 56.2557 218.946 54.1435 223.706 54.1401H378.414C383.175 54.1401 387.742 56.2512 391.108 60.009C394.475 63.7667 396.367 68.8633 396.367 74.1776Z" fill="white" stroke="#222221" stroke-width="1.10311" stroke-miterlimit="10"/>
<path d="M396.367 74.1776V75.8943H205.753V74.1776C205.756 68.8644 207.649 63.7697 211.015 60.0127C214.381 56.2557 218.946 54.1435 223.706 54.1401H378.414C383.175 54.1401 387.742 56.2512 391.108 60.009C394.475 63.7667 396.367 68.8633 396.367 74.1776Z" fill="#22459F" stroke="#263238" stroke-width="1.10311" stroke-miterlimit="10"/>
<path d="M233.761 68.6045C233.376 69.0353 232.885 69.3289 232.351 69.4481C231.816 69.5674 231.262 69.5069 230.758 69.2744C230.254 69.0419 229.824 68.6478 229.521 68.142C229.218 67.6362 229.056 67.0414 229.056 66.4329C229.056 65.8245 229.218 65.2297 229.521 64.7239C229.824 64.2181 230.254 63.824 230.758 63.5915C231.262 63.359 231.816 63.2985 232.351 63.4178C232.885 63.537 233.376 63.8306 233.761 64.2614C234.274 64.8394 234.561 65.6198 234.561 66.4329C234.561 67.2461 234.274 68.0265 233.761 68.6045Z" fill="#263238"/>
<path d="M246.525 68.6045C246.14 69.0353 245.649 69.3289 245.115 69.4481C244.58 69.5674 244.026 69.5069 243.522 69.2744C243.018 69.0419 242.588 68.6478 242.285 68.142C241.982 67.6362 241.82 67.0414 241.82 66.4329C241.82 65.8245 241.982 65.2297 242.285 64.7239C242.588 64.2181 243.018 63.824 243.522 63.5915C244.026 63.359 244.58 63.2985 245.115 63.4178C245.649 63.537 246.14 63.8306 246.525 64.2614C247.038 64.8394 247.325 65.6198 247.325 66.4329C247.325 67.2461 247.038 68.0265 246.525 68.6045Z" fill="#263238"/>
<path d="M259.289 68.6045C258.904 69.0353 258.414 69.3289 257.879 69.4481C257.344 69.5674 256.79 69.5069 256.286 69.2744C255.783 69.0419 255.352 68.6478 255.049 68.142C254.746 67.6362 254.584 67.0414 254.584 66.4329C254.584 65.8245 254.746 65.2297 255.049 64.7239C255.352 64.2181 255.783 63.824 256.286 63.5915C256.79 63.359 257.344 63.2985 257.879 63.4178C258.414 63.537 258.904 63.8306 259.289 64.2614C259.802 64.8394 260.089 65.6198 260.089 66.4329C260.089 67.2461 259.802 68.0265 259.289 68.6045Z" fill="#263238"/>
<path d="M280.215 89.6797H217.909V149.792H280.215V89.6797Z" stroke="#263238" stroke-width="1.10311" stroke-linecap="round" stroke-linejoin="round" stroke-dasharray="4.41 4.41"/>
<path d="M361.541 89.6797H289.834V93.9075H361.541V89.6797Z" fill="#263238"/>
<path d="M344.839 98.4301H289.834V102.645H344.839V98.4301Z" fill="#263238"/>
<path d="M371.734 107.142H289.834V111.408H371.734V107.142Z" fill="#263238"/>
<path d="M359.578 115.636H289.834V119.902H359.578V115.636Z" fill="#263238"/>
<path d="M401.578 260.254H366.511C362.371 260.254 359.015 264 359.015 268.62V291.592C359.015 296.212 362.371 299.958 366.511 299.958H401.578C405.718 299.958 409.073 296.212 409.073 291.592V268.62C409.073 264 405.718 260.254 401.578 260.254Z" fill="white" stroke="#263238" stroke-width="1.10311" stroke-linecap="round" stroke-linejoin="round"/>
<path d="M375.166 272.195L365.535 278.934L374.477 287.774" stroke="#263238" stroke-width="1.10311" stroke-linecap="round" stroke-linejoin="round"/>
<path d="M392.705 288.414L401.36 280.189L391.374 272.887" stroke="#263238" stroke-width="1.10311" stroke-linecap="round" stroke-linejoin="round"/>
<path d="M379.849 293.488L386.954 268.608" stroke="#263238" stroke-width="1.10311" stroke-linecap="round" stroke-linejoin="round"/>
<path d="M305.789 510.005C305.789 510.005 272.501 520.652 267.852 522.496C263.628 524.162 252.173 528.646 243.575 527.25C242.745 527.116 241.925 526.92 241.119 526.66C232.407 523.765 228.492 521.062 227.345 514.95C226.197 508.839 230.536 504.33 234.714 501.447C238.892 498.564 261.551 495.554 261.551 495.554L267.026 497.347L305.789 510.005Z" fill="#22459F"/>
<path d="M243.575 527.25C242.745 527.116 241.925 526.92 241.119 526.66C232.407 523.765 228.492 521.062 227.345 514.95C226.197 508.839 230.536 504.33 234.714 501.447C238.892 498.564 261.551 495.554 261.551 495.554L267.026 497.347C262.067 499.909 243.61 501.306 239.581 503.894C235.552 506.482 233.612 511.35 235.988 517.987C237.262 521.446 240.66 524.841 243.575 527.25Z" fill="white"/>
<path d="M300.785 511.517C300.785 511.517 275.784 518.743 265.867 523.368C255.949 527.993 237.044 530.017 230.283 520.485C223.522 510.953 229.503 502.728 236.24 500.896C242.978 499.064 256.603 496.181 264.042 497.347" stroke="#263238" stroke-width="1.10311" stroke-linecap="round" stroke-linejoin="round"/>
<path d="M244.069 526.75C244.069 526.75 231.351 518.961 235.575 508.045C238.697 499.999 255.662 501.742 264.065 497.347" stroke="#263238" stroke-width="1.10311" stroke-linecap="round" stroke-linejoin="round"/>
<path d="M407.179 528.979C406.835 532.823 405.63 536.423 402.186 538.69C399.89 540.202 396.631 541.099 391.959 541.048C380.285 540.881 358.338 531.567 358.338 531.567L337.791 518.884L348.478 500.012L351.405 494.887L358.958 496.783C358.958 496.783 365.214 500.742 371.504 503.894C377.794 507.046 393.072 507.737 398.456 512.567C403.839 517.397 407.765 522.65 407.179 528.979Z" fill="#22459F"/>
<path d="M407.179 528.979C406.835 532.823 405.63 536.423 402.186 538.69C403.178 534.912 402.975 530.868 401.612 527.237C399.317 521.484 391.844 516.411 382.018 515.565C372.193 514.72 364.674 509.595 360.737 507.302C357.661 505.521 351.175 501.626 348.478 500.012L351.405 494.887L358.958 496.783C358.958 496.783 365.214 500.742 371.504 503.894C377.794 507.046 393.072 507.737 398.456 512.567C403.839 517.397 407.765 522.65 407.179 528.979Z" fill="white"/>
<path d="M342.348 522.445C357.138 532.041 373.485 538.272 390.444 540.779C394.186 541.278 398.536 541.355 401.038 538.216C401.704 537.31 402.2 536.263 402.495 535.138C402.791 534.014 402.881 532.834 402.76 531.67C402.312 525.776 397.87 521.113 393.003 518.768C388.136 516.424 382.776 515.886 377.599 514.592C372.451 513.296 367.474 511.264 362.792 508.545C359.073 506.379 355.48 503.753 351.382 502.779C347.284 501.806 342.406 502.984 340.213 506.981" stroke="#263238" stroke-width="1.10311" stroke-linecap="round" stroke-linejoin="round"/>
<path d="M399.661 539.818C401.584 538.79 403.266 537.275 404.571 535.393C405.876 533.511 406.77 531.315 407.179 528.979C407.926 523.432 405.09 517.846 401.107 514.438C397.124 511.03 392.131 509.416 387.207 508.276C382.282 507.135 377.243 506.367 372.526 504.278C365.329 501.127 358.223 494.926 350.716 497.142" stroke="#263238" stroke-width="1.10311" stroke-linecap="round" stroke-linejoin="round"/>
<path d="M365.535 323.967L330.767 309.208L330.33 309.016C330.33 309.016 330.457 307.991 330.56 306.453C330.778 303.353 330.893 298.305 329.584 296.601C327.644 294.039 322.158 296.191 316.797 293.449C311.437 290.708 301.531 295.615 301.531 295.615C301.531 295.615 294.368 294.141 291.2 299.906C289.593 304.557 290.144 311.437 290.144 311.437L289.49 311.693C285.346 313.423 262.802 322.891 258.038 326.696C252.77 330.859 246.938 373.612 245.067 386.167C243.196 398.723 239.868 410.036 241.555 414.353C243.242 418.671 267.462 439.49 281.397 444.858C295.332 450.226 344.747 448.701 344.747 448.701C344.747 448.701 345.551 448.458 346.986 447.945C355.342 444.947 384.991 432.571 400.728 403.514C400.751 403.566 385.508 347.796 365.535 323.967ZM271.594 395.879C269.035 397.903 270.447 405.744 270.447 405.744L266.096 401.465L277.024 371.472L281.684 394.533C281.684 394.533 274.154 393.867 271.594 395.879ZM359.015 414.93C357.81 415.621 362.459 401.208 360.255 397.941C358.051 394.674 351.405 394.982 351.405 394.982L351.967 391.049L355.905 368.5L357.213 366.771C357.213 366.771 370.735 392.637 373.157 401.759C373.157 401.785 358.418 414.93 359.015 414.93Z" fill="#22459F"/>
<path d="M299.889 230.429L281.937 251.696C281.937 251.696 279.469 254.143 280.444 260.306C281.42 266.468 283.716 271.836 285.449 272.195C286.821 272.463 288.211 272.6 289.604 272.605C289.604 272.605 293.45 281.906 296.182 285.557C296.182 285.557 297.123 299.919 296.618 303.904C296.618 303.904 303.069 310.194 309.141 310.989C315.213 311.783 324.591 301.405 324.591 301.405L326.887 288.696C326.887 288.696 332.396 279.369 332.764 276.884C333.131 274.398 335.656 275.039 336.896 273.809C338.136 272.579 340.994 267.109 341.487 261.933C341.981 256.757 341.993 250.812 336.609 252.555C331.937 251.158 334.864 240.14 334.864 240.14L326.657 232.069L299.889 230.429Z" fill="#E1D1D1"/>
<path opacity="0.5" d="M330.767 309.208C330.496 310 330.185 310.774 329.837 311.527C326.875 317.753 313.973 329.63 313.973 329.63L310.071 316.241L307.936 329.63C303.631 327.528 290.5 314.832 290.5 314.832C290.5 314.832 290.052 313.641 289.513 311.783L290.167 311.527C290.167 311.527 289.616 304.596 291.223 299.996C294.368 294.231 301.554 295.704 301.554 295.704C301.554 295.704 311.46 290.797 316.82 293.539C322.181 296.281 327.667 294.154 329.607 296.691C331.547 299.227 330.353 309.067 330.353 309.067L330.767 309.208Z" fill="white"/>
<path opacity="0.2" d="M365.535 323.967L330.767 309.208L330.33 309.016C330.33 309.016 330.457 307.991 330.56 306.453L329.837 311.488L324.694 319.278C330.191 321.537 335.558 324.173 340.764 327.17C343.257 328.66 345.29 330.952 346.6 333.748C347.91 336.545 348.436 339.717 348.111 342.851L341.706 404.027L339.077 438.759L347.009 447.945C355.365 444.947 385.014 432.571 400.751 403.515C400.751 403.566 385.508 347.797 365.535 323.967ZM359.015 414.93C357.81 415.622 362.459 401.208 360.255 397.941C358.051 394.674 351.405 394.982 351.405 394.982L351.967 391.049L355.905 368.5L357.213 366.771C357.213 366.771 370.735 392.637 373.157 401.759C373.157 401.785 358.418 414.93 359.015 414.93Z" fill="black"/>
<path opacity="0.2" d="M283.991 397.941L278.585 377.776C278.585 377.776 268.886 340.865 262.239 331.769L263.984 357.725C263.984 357.725 258.245 388.73 252.999 397.941C247.753 407.153 246.583 409.472 252.999 409.472C259.416 409.472 275.038 423.36 275.038 423.36L273.833 411.829L283.991 397.941ZM270.366 405.744L266.016 401.465L276.943 371.472L281.604 394.533C281.604 394.533 274.12 393.906 271.56 395.917C269 397.929 270.366 405.744 270.366 405.744Z" fill="black"/>
<path d="M296.182 285.557C296.182 285.557 297.169 296.435 296.182 301.405" stroke="#263238" stroke-width="1.10311" stroke-linecap="round" stroke-linejoin="round"/>
<path d="M325.59 299.945C325.6 296.447 325.962 292.962 326.669 289.555" stroke="#263238" stroke-width="1.10311" stroke-linecap="round" stroke-linejoin="round"/>
<path d="M328.195 238.539C328.195 238.539 334.095 246.802 333.785 253.054C333.475 259.306 333.039 266.711 333.188 273.963C333.338 281.214 322.754 296.409 317.314 297.754C311.873 299.099 307.189 299.445 303.711 295.563C300.233 291.681 296.755 286.288 292.233 279.369C287.71 272.451 288.789 257.269 288.789 257.269" stroke="#263238" stroke-width="1.10311" stroke-linecap="round" stroke-linejoin="round"/>
<path d="M313.985 263.047C313.625 265.318 313.472 267.622 313.526 269.927C313.407 271.87 313.948 273.79 315.041 275.308C315.695 276.051 316.636 276.653 316.763 277.678C316.76 278.14 316.645 278.591 316.431 278.986C316.217 279.381 315.911 279.703 315.546 279.92C314.81 280.335 314.1 280.806 313.422 281.33" stroke="#263238" stroke-width="1.10311" stroke-linecap="round" stroke-linejoin="round"/>
<path d="M304.653 282.124C304.653 282.124 305.33 287.031 311.219 288.056" stroke="#263238" stroke-width="1.10311" stroke-linecap="round" stroke-linejoin="round"/>
<path d="M305.261 266.788C305.261 268.21 304.71 269.351 304.033 269.351C303.356 269.351 302.805 268.21 302.805 266.788C302.805 265.366 303.356 264.226 304.033 264.226C304.71 264.226 305.261 265.379 305.261 266.788Z" fill="#263238"/>
<path d="M322.835 267.403C322.835 268.825 322.284 269.966 321.607 269.966C320.929 269.966 320.378 268.813 320.378 267.403C320.378 265.994 320.929 264.841 321.607 264.841C322.284 264.841 322.835 265.981 322.835 267.403Z" fill="#263238"/>
<path d="M319.288 261.19C319.288 261.19 325.027 254.784 329.837 261.933" stroke="#263238" stroke-width="2.20621" stroke-linecap="round" stroke-linejoin="round"/>
<path d="M307.201 261.318C307.201 261.318 303.574 256.782 297.857 261.318" stroke="#263238" stroke-width="2.20621" stroke-linecap="round" stroke-linejoin="round"/>
<path d="M296.618 291.605C296.618 291.605 300.119 302.366 307.936 305.428C315.753 308.49 326.129 292.617 326.129 292.617L325.59 290.554C325.59 290.554 318.783 300.419 311.219 298.741C303.654 297.062 296.182 285.609 296.182 285.609L296.618 291.605Z" fill="#263238"/>
<path d="M289.604 272.195C289.604 272.195 284.944 274.027 283.704 269.978C282.465 265.93 278.218 255.258 281.937 251.696C285.656 248.135 288.64 256.398 288.64 256.398" stroke="#263238" stroke-width="1.10311" stroke-linecap="round" stroke-linejoin="round"/>
<path d="M333.177 274.399C333.177 274.399 337.504 275.372 338.744 271.324C339.984 267.275 344.231 256.603 340.512 253.041C336.793 249.48 333.808 257.743 333.808 257.743" stroke="#263238" stroke-width="1.10311" stroke-linecap="round" stroke-linejoin="round"/>
<path d="M288.64 266.788C290.259 266.503 291.72 265.542 292.727 264.098C293.341 262.831 293.731 261.443 293.874 260.011C294.301 257.286 294.516 254.526 294.517 251.76C294.467 250.68 294.556 249.597 294.781 248.545C295.126 247.486 295.657 246.514 296.342 245.688C297.961 243.561 299.924 241.767 301.473 239.564C302.304 238.524 302.936 237.306 303.331 235.984C303.725 234.662 303.874 233.265 303.769 231.877C307.32 235.145 311.47 237.504 315.926 238.79C320.382 240.076 325.036 240.257 329.561 239.32C337.768 237.526 345.631 229.494 344.679 219.398C344.499 217.705 343.848 216.118 342.819 214.859C341.79 213.6 340.433 212.732 338.939 212.377C334.887 211.25 331.249 213.658 327.575 215.209C320.883 218.027 314.329 213.184 307.568 212.377C301.829 211.673 294.678 212.48 291.67 218.898C291.67 218.898 281.34 220.256 276.748 229.788C272.157 239.32 280.846 252.503 280.846 252.503C280.846 252.503 284.29 247.789 288.801 257.321L288.64 266.788Z" fill="#263238"/>
<path d="M328.907 236.104C328.907 236.104 326.221 251.735 333.234 259.306C333.234 259.306 334.773 254.604 336.322 253.451C337.439 250.678 337.913 247.634 337.698 244.602C337.483 241.571 336.588 238.648 335.094 236.104C329.906 227.008 328.907 236.104 328.907 236.104Z" fill="#263238"/>
<path opacity="0.2" d="M341.694 218.322C341.078 220.454 340.034 222.402 338.642 224.016C337.249 225.63 335.545 226.868 333.659 227.636C323.925 232.069 314.478 227.162 304.722 226.201C296.767 225.407 287.986 233.427 287.423 242.549" stroke="white" stroke-width="1.10311" stroke-linecap="round" stroke-linejoin="round"/>
<path opacity="0.2" d="M281.42 240.14C281.539 236.54 282.574 233.053 284.404 230.085C286.233 227.118 288.781 224.793 291.751 223.382" stroke="white" stroke-width="1.10311" stroke-linecap="round" stroke-linejoin="round"/>
<path d="M293.932 299.945C298.212 304.924 303.377 308.851 309.095 311.475C309.095 311.475 320.746 307.696 326.669 298.664" stroke="#263238" stroke-width="1.10311" stroke-linecap="round" stroke-linejoin="round"/>
<path d="M305.838 277.22C311.013 274.571 313.283 267.742 310.91 261.966C308.537 256.191 302.418 253.656 297.243 256.306C292.069 258.955 289.798 265.784 292.172 271.559C294.545 277.335 300.664 279.869 305.838 277.22Z" stroke="#263238" stroke-width="1.10311" stroke-linecap="round" stroke-linejoin="round"/>
<path d="M325.812 278.233C331.463 277.459 335.481 271.718 334.787 265.412C334.093 259.105 328.95 254.62 323.3 255.395C317.649 256.169 313.631 261.909 314.325 268.216C315.019 274.523 320.162 279.007 325.812 278.233Z" stroke="#263238" stroke-width="1.10311" stroke-linecap="round" stroke-linejoin="round"/>
<path d="M296.182 295.653C295.137 295.959 294.159 296.497 293.305 297.234C292.451 297.972 291.739 298.894 291.211 299.945C289.386 303.532 290.488 314.819 290.488 314.819C290.488 314.819 299.912 325.222 307.936 329.617L310.3 314.768L313.973 329.617C313.973 329.617 326.393 319.816 329.837 311.527C329.837 311.527 330.985 301.854 329.837 298.715C329.576 297.843 329.079 297.083 328.415 296.539C327.751 295.996 326.953 295.695 326.129 295.679" stroke="#263238" stroke-width="1.10311" stroke-linecap="round" stroke-linejoin="round"/>
<path d="M281.42 394.995C281.42 394.995 277.736 367.45 272.834 356.214" stroke="#263238" stroke-width="1.10311" stroke-linecap="round" stroke-linejoin="round"/>
<path d="M262.24 331.769C265.093 336.296 267.641 341.054 269.861 346.003" stroke="#263238" stroke-width="1.10311" stroke-linecap="round" stroke-linejoin="round"/>
<path d="M359.015 352.332C360.005 347.726 361.361 343.229 363.067 338.892" stroke="#263238" stroke-width="1.10311" stroke-linecap="round" stroke-linejoin="round"/>
<path d="M351.405 394.995C351.405 394.995 354.057 376.11 357.225 360.557" stroke="#263238" stroke-width="1.10311" stroke-linecap="round" stroke-linejoin="round"/>
<path d="M355.905 368.474C358.468 364.682 362.071 361.928 366.167 360.634" stroke="#263238" stroke-width="1.10311" stroke-linecap="round" stroke-linejoin="round"/>
<path d="M330.342 309.016C330.342 309.016 351.726 318.56 365.535 323.98C365.535 323.98 382.523 341.801 400.74 403.566C400.74 403.566 384.05 434.903 352.3 444.948" stroke="#263238" stroke-width="1.10311" stroke-linecap="round" stroke-linejoin="round"/>
<path d="M357.81 416.044L373.157 401.785C373.157 401.785 381.272 394.905 389.709 399.607" stroke="#263238" stroke-width="1.10311" stroke-linecap="round" stroke-linejoin="round"/>
<path d="M357.225 366.771C357.225 366.771 369.908 387.692 373.157 401.785" stroke="#263238" stroke-width="1.10311" stroke-linecap="round" stroke-linejoin="round"/>
<path d="M270.538 406.538L266.05 401.785C266.05 401.785 259.393 400.504 251.84 406.128" stroke="#263238" stroke-width="1.10311" stroke-linecap="round" stroke-linejoin="round"/>
<path d="M266.05 401.785C266.05 401.785 271.629 381.286 277.127 370.793" stroke="#263238" stroke-width="1.10311" stroke-linecap="round" stroke-linejoin="round"/>
<path d="M290.167 311.527C290.167 311.527 259.393 324.415 256.374 328.182C253.355 331.949 241.888 404.014 241.578 412.265C241.314 419.644 265.281 436.21 277.162 443.192" stroke="#263238" stroke-width="1.10311" stroke-linecap="round" stroke-linejoin="round"/>
<path d="M313.181 335.882C313.181 336.33 313.062 336.769 312.839 337.142C312.616 337.514 312.298 337.805 311.927 337.977C311.556 338.148 311.147 338.193 310.753 338.106C310.359 338.018 309.997 337.802 309.713 337.485C309.429 337.168 309.235 336.764 309.157 336.324C309.079 335.884 309.119 335.428 309.273 335.014C309.426 334.599 309.687 334.245 310.021 333.996C310.355 333.747 310.748 333.614 311.15 333.614C311.417 333.612 311.682 333.67 311.929 333.783C312.176 333.896 312.401 334.063 312.59 334.274C312.779 334.485 312.928 334.736 313.03 335.012C313.131 335.288 313.183 335.583 313.181 335.882Z" fill="#263238"/>
<path d="M348.788 456.593H278.769C278.333 456.593 277.916 456.4 277.608 456.057C277.3 455.713 277.127 455.247 277.127 454.761C277.127 454.275 277.3 453.809 277.608 453.466C277.916 453.122 278.333 452.929 278.769 452.929H348.788C349.223 452.929 349.641 453.122 349.949 453.466C350.256 453.809 350.429 454.275 350.429 454.761C350.429 455.247 350.256 455.713 349.949 456.057C349.641 456.4 349.223 456.593 348.788 456.593Z" fill="#263238"/>
<path d="M351.244 450.469L360.622 401.272C360.768 400.51 360.759 399.72 360.595 398.962C360.432 398.204 360.119 397.496 359.679 396.89C359.238 396.284 358.682 395.796 358.051 395.462C357.42 395.127 356.73 394.954 356.031 394.956H274.189C273.496 394.956 272.812 395.128 272.186 395.459C271.559 395.79 271.007 396.272 270.568 396.87C270.128 397.468 269.814 398.167 269.646 398.917C269.478 399.668 269.461 400.45 269.597 401.208L278.011 448.765C278.217 449.933 278.775 450.988 279.591 451.754C280.407 452.521 281.433 452.953 282.499 452.98L346.538 454.62C347.633 454.647 348.702 454.248 349.561 453.49C350.42 452.732 351.015 451.664 351.244 450.469Z" fill="white" stroke="#263238" stroke-width="1.10311" stroke-linecap="round" stroke-linejoin="round"/>
<path d="M321.377 423.347C321.375 424.788 320.99 426.196 320.271 427.393C319.552 428.591 318.531 429.523 317.337 430.073C316.144 430.622 314.831 430.765 313.565 430.482C312.298 430.2 311.136 429.504 310.223 428.484C309.311 427.464 308.69 426.165 308.439 424.752C308.188 423.338 308.318 421.873 308.813 420.541C309.307 419.21 310.145 418.072 311.218 417.272C312.292 416.471 313.554 416.044 314.846 416.044C315.704 416.044 316.555 416.233 317.348 416.6C318.141 416.968 318.862 417.506 319.468 418.184C320.075 418.862 320.556 419.667 320.883 420.553C321.211 421.439 321.379 422.388 321.377 423.347Z" fill="#263238"/>
<path d="M334.222 399.658H343.944" stroke="#263238" stroke-width="1.10311" stroke-linecap="round" stroke-linejoin="round"/>
<path d="M287.791 399.658H324.694" stroke="#263238" stroke-width="1.10311" stroke-linecap="round" stroke-linejoin="round"/>
<path d="M351.405 502.702L343.944 524.559C343.944 524.559 324.913 519.204 300.543 513.631C275.05 507.801 248.431 500.255 234.622 473.21C232.946 469.917 231.821 466.023 232.613 462.333C234.599 452.993 245.492 450.456 252.666 449.521C257.177 448.977 261.709 448.694 266.246 448.676C268.541 448.676 276.174 447.279 278.023 448.804C280.799 451.065 283.763 453.025 286.873 454.659C290.947 456.593 350.429 452.929 350.429 452.929C351.464 450.41 352.097 447.709 352.3 444.947C361.655 439.643 383.293 435.159 392.475 437.145C406.858 440.258 415.249 449.624 413.653 459.437C412.058 469.251 380.285 495.566 351.405 502.702Z" fill="#263238"/>
<path d="M351.405 502.702C351.405 502.702 333.303 497.347 318.519 486.201C303.735 475.055 292.187 462.115 271.583 464.793" stroke="white" stroke-width="1.10311" stroke-linecap="round" stroke-linejoin="round"/>
<path d="M315.133 483.575C324.476 480.577 331.329 473.825 338.824 467.355C346.73 460.273 355.22 454.044 364.181 448.753" stroke="white" stroke-width="1.10311" stroke-linecap="round" stroke-linejoin="round"/>
<path d="M311.838 268.608H314.582" stroke="#263238" stroke-width="1.10311" stroke-linecap="round" stroke-linejoin="round"/>
</svg>
